<?xml version="1.0" encoding="UTF-8" standalone="no"?>
<!-- Generator: Adobe Illustrator 27.0.1, SVG Export Plug-In . SVG Version: 6.00 Build 0)  -->

<svg
   version="1.0"
   id="Ebene_1"
   x="0px"
   y="0px"
   viewBox="0 0 48 48"
   xml:space="preserve"
   sodipodi:docname="icon.svg"
   inkscape:export-filename="C:\Users\noahs\Git\loremipsum/icons\icon256.png"
   inkscape:export-xdpi="512"
   inkscape:export-ydpi="512"
   width="48"
   height="48"
   inkscape:version="1.1.1 (3bf5ae0d25, 2021-09-20)"
   xmlns:inkscape="http://www.inkscape.org/namespaces/inkscape"
   xmlns:sodipodi="http://sodipodi.sourceforge.net/DTD/sodipodi-0.dtd"
   xmlns="http://www.w3.org/2000/svg"
   xmlns:svg="http://www.w3.org/2000/svg"><sodipodi:namedview
   id="namedview11"
   pagecolor="#ffffff"
   bordercolor="#666666"
   borderopacity="1.0"
   inkscape:pageshadow="2"
   inkscape:pageopacity="0.0"
   inkscape:pagecheckerboard="0"
   showgrid="false"
   inkscape:zoom="15.416667"
   inkscape:cx="24"
   inkscape:cy="22.475676"
   inkscape:window-width="1776"
   inkscape:window-height="1111"
   inkscape:window-x="888"
   inkscape:window-y="803"
   inkscape:window-maximized="0"
   inkscape:current-layer="g14" /><defs
   id="defs19" />
<g
   id="g14"
   transform="translate(-2)">
	<path
   d="m 13,34 c -1.1,0 -2,-0.9 -2,-2 V 15 h 28 v 9.7 c 0.3,0.1 0.7,0.3 1,0.5 V 15 13 c 0,-1.7 -1.3,-3 -3,-3 H 13 c -1.7,0 -3,1.3 -3,3 v 2 17 c 0,1.7 1.3,3 3,3 H 30.2 C 30,34.7 29.8,34.3 29.7,34 Z m 1.5,-20.5 c -0.6,0 -1,-0.4 -1,-1 0,-0.6 0.4,-1 1,-1 0.6,0 1,0.4 1,1 0,0.6 -0.4,1 -1,1 z m 3.5,0 c -0.6,0 -1,-0.4 -1,-1 0,-0.6 0.4,-1 1,-1 0.6,0 1,0.4 1,1 0,0.6 -0.4,1 -1,1 z m 3.5,0 c -0.6,0 -1,-0.4 -1,-1 0,-0.6 0.4,-1 1,-1 0.6,0 1,0.4 1,1 0,0.6 -0.4,1 -1,1 z m 14.2,-0.3 h -8.9 c -0.4,0 -0.8,-0.3 -0.8,-0.8 0,-0.4 0.3,-0.8 0.8,-0.8 h 8.9 c 0.4,0 0.8,0.3 0.8,0.8 -0.1,0.5 -0.4,0.8 -0.8,0.8 z"
   id="path2" />
	<path
   d="m 40,26.4 c -0.3,-0.2 -0.645745,-0.445868 -1,-0.6 -0.8,-0.4 -1.8,-0.7 -2.8,-0.7 -3.4,0 -6.1,2.7 -6.1,6.1 0,1 0.2,1.9 0.7,2.8 0.2,0.4 0.4,0.7 0.6,1 1.1,1.4 2.9,2.4 4.8,2.4 3.4,0 6.1,-2.7 6.1,-6.1 0.1,-2 -0.9,-3.8 -2.3,-4.9 z m -3.8,9.1 c -0.7,0 -1.4,-0.2 -2,-0.5 C 34.1,35 34,34.9 34,34.9 L 34.9,34 39,29.9 39.9,29 c 0,0.1 0.1,0.2 0.1,0.2 0.3,0.6 0.5,1.2 0.5,2 0,2.4 -1.9,4.3 -4.3,4.3 z m 0,-8.5 c 0.8,0 1.6,0.2 2.2,0.6 l -5.8,5.8 C 32.2,32.8 32,32 32,31.2 32,28.9 33.9,27 36.2,27 Z"
   id="path4"
   style="fill:#d40000" />
	<polygon
   points="18.3,18.1 17.1,18.1 17.1,21.9 14.8,18.1 13.6,18.1 13.6,23.9 14.8,23.9 14.8,20.1 17.1,23.9 18.3,23.9 "
   id="polygon6" />
	<polygon
   points="20.9,21.4 23.2,21.4 23.2,20.4 20.9,20.4 20.9,19.1 23.6,19.1 23.6,18.1 19.7,18.1 19.7,23.9 23.6,23.9 23.6,23 20.9,23 "
   id="polygon8" />
	<polygon
   points="27.9,20 28.8,23.9 30,23.9 31.3,18.1 30.1,18.1 29.3,22.2 28.4,18.1 27.4,18.1 26.4,22.2 25.6,18.1 24.4,18.1 25.7,23.9 26.9,23.9 "
   id="polygon10" />
	<path
   d="m 34.3,19 c 0.3,0 0.5,0.1 0.7,0.2 0.2,0.1 0.3,0.4 0.3,0.6 h 1.2 c 0,-0.4 -0.1,-0.7 -0.3,-0.9 -0.2,-0.3 -0.4,-0.5 -0.8,-0.6 -0.3,-0.2 -0.7,-0.2 -1.1,-0.2 -0.4,0 -0.8,0.1 -1.1,0.2 -0.3,0.1 -0.6,0.3 -0.8,0.6 -0.2,0.2 -0.3,0.5 -0.3,0.8 0,0.6 0.3,1.1 1,1.4 0.2,0.1 0.6,0.3 1,0.4 0.4,0.1 0.7,0.3 0.9,0.4 0.2,0.1 0.2,0.3 0.2,0.5 0,0.2 -0.1,0.4 -0.2,0.5 C 34.8,23 34.6,23 34.3,23 33.5,23 33.1,22.7 33.1,22 H 32 c 0,0.4 0.1,0.7 0.3,1 0.2,0.3 0.5,0.5 0.8,0.7 0.4,0.2 0.8,0.2 1.2,0.2 0.6,0 1.2,-0.1 1.5,-0.4 0.4,-0.3 0.6,-0.7 0.6,-1.2 0,-0.5 -0.2,-0.8 -0.5,-1.1 -0.3,-0.3 -0.8,-0.6 -1.5,-0.8 -0.4,-0.1 -0.7,-0.2 -0.8,-0.4 -0.2,-0.1 -0.3,-0.3 -0.3,-0.5 0,-0.2 0.1,-0.4 0.2,-0.5 0.2,0 0.5,0 0.8,0 z"
   id="path12" />
</g>
</svg>
